<?xml version="1.0" encoding="utf-8"?>
<!-- Generator: Adobe Illustrator 16.0.0, SVG Export Plug-In . SVG Version: 6.00 Build 0)  -->
<!DOCTYPE svg PUBLIC "-//W3C//DTD SVG 1.1//EN" "http://www.w3.org/Graphics/SVG/1.1/DTD/svg11.dtd">
<svg version="1.1" id="Layer_1" xmlns="http://www.w3.org/2000/svg" xmlns:xlink="http://www.w3.org/1999/xlink" x="0px" y="0px"
	 width="960px" height="152px" viewBox="0 207.5 960 152" enable-background="new 0 207.5 960 152" xml:space="preserve">
<g>
	<path fill="#C7923B" d="M528.62,306.903c-26.081-9.585-49.339,3.759-73.729,6.8c-22.97,2.862-41.07-7.675-55.667-25.954
		c24.137,7.86,46.299-0.826,69.123-5.163C492.071,278.079,512.409,286.663,528.62,306.903"/>
	<path fill="#222C6A" d="M150.951,358.994h-18.799l-18.344-43.482H39.527l-18.345,43.482H2.386l63.638-149.923h21.29
		L150.951,358.994z M107.241,299.885l-30.573-73.149l-30.573,73.149H107.241z"/>
	<path fill="#222C6A" d="M171.101,358.994h-16.985V209.07h67.486c31.93,0,51.637,18.796,51.637,48.237
		c0,29.668-19.707,48.238-51.637,48.238h-50.502v53.449H171.101z M171.101,225.15v64.544h49.369
		c23.555,0,35.783-12.229,35.783-32.386c0-19.927-12.229-32.158-35.783-32.158H171.101L171.101,225.15z"/>
	<path fill="#222C6A" d="M297.463,358.994h-16.984V209.07h67.488c31.934,0,51.637,18.796,51.637,48.237
		c0,29.668-19.704,48.238-51.637,48.238h-50.503V358.994z M297.463,225.15v64.544h49.374c23.551,0,35.78-12.229,35.78-32.386
		c0-19.927-12.229-32.158-35.78-32.158H297.463L297.463,225.15z"/>
	<polygon fill="#222C6A" points="670.22,209.07 670.22,358.994 650.518,358.994 557.892,232.397 557.892,358.994 540.907,358.994 
		540.907,209.07 560.608,209.07 653.234,335.214 653.234,209.07 	"/>
	<polygon fill="#222C6A" points="714.826,225.376 714.826,275.653 798.167,275.653 798.167,292.186 714.826,292.186 
		714.826,342.688 808.134,342.688 808.134,358.994 697.841,358.994 697.841,209.07 808.134,209.07 808.134,225.376 	"/>
	<path fill="#222C6A" d="M959.63,358.994h-18.795l-18.345-43.482h-74.282l-18.344,43.482h-18.797l63.637-149.923h21.288
		L959.63,358.994z M915.922,299.885l-30.573-73.149l-30.573,73.149H915.922z"/>
	<path fill="#C7923B" d="M421.817,270.509c0,6.023,4.882,10.907,10.906,10.907c6.023,0,10.904-4.884,10.904-10.907
		c0-6.021-4.881-10.904-10.904-10.904C426.699,259.606,421.817,264.488,421.817,270.509"/>
</g>
</svg>
